<!-- Generator: Adobe Illustrator 27.6.1, SVG Export Plug-In . SVG Version: 6.00 Build 0)  -->
<svg version="1.1" id="Layer_1" xmlns="http://www.w3.org/2000/svg" xmlns:xlink="http://www.w3.org/1999/xlink" x="0px" y="0px"
	 viewBox="0 0 662.4 172.6" style="enable-background:new 0 0 662.4 172.6;" xml:space="preserve">
<path fill="currentcolor" d="M607.7,172c-10.5,0-19.9-2.4-28.2-7.3c-8.3-4.9-14.8-11.5-19.6-19.9s-7.2-18-7.2-28.8s2.4-20.4,7.2-28.8s11.3-15,19.6-19.9
	c8.3-4.8,17.7-7.3,28.2-7.3s19.7,2.4,28,7.3c8.3,4.8,14.8,11.5,19.6,19.9s7.2,18,7.2,28.8s-2.4,20.4-7.2,28.8
	c-4.8,8.4-11.3,15-19.6,19.9C627.4,169.5,618,172,607.7,172z M607.7,152.7c6.4,0,12.2-1.6,17.2-4.8s9-7.6,11.9-13.1
	s4.2-11.8,4.1-18.8c0.1-7.1-1.2-13.4-4.1-19s-6.8-9.9-11.9-13c-5.1-3.1-10.8-4.7-17.2-4.7s-12.2,1.6-17.3,4.8s-9.1,7.6-12,13.1
	s-4.2,11.8-4.1,18.8c-0.1,7,1.2,13.2,4.1,18.8s6.9,9.9,12,13.1S601.2,152.7,607.7,152.7L607.7,152.7z"/>
<path fill="currentcolor" d="M473,172c-7.7,0-14.3-1.8-20-5.3c-5.7-3.6-10-8.5-13.1-15c-3.1-6.4-4.6-14.1-4.6-23V62.3h21.1V123c0,9.4,2.2,16.9,6.7,22.3
	c4.4,5.5,10.6,8.2,18.5,8.2c4,0,7.6-0.6,10.9-1.9c3.3-1.3,6.1-3.1,8.5-5.4c2.4-2.3,4.3-5.1,5.6-8.4c1.4-3.3,2-6.8,2-10.7V62.3h21.1
	v107.6h-21.1v-22.6l3.7-2.5c-1.6,5.1-4.4,9.6-8.3,13.7c-3.9,4.1-8.5,7.4-13.8,9.7S479.2,172,473,172L473,172z"/>
<path fill="currentcolor" d="M347.5,82.8V62.3H416v20.5H347.5z M369.9,169.9V34.8H391v135.1L369.9,169.9L369.9,169.9z"/>
<path fill="currentcolor" d="M269.8,169.9V62.3h21.3v33.8l-2-8.2c1.5-5.2,4.1-9.9,7.7-14.1s7.8-7.6,12.5-10c4.7-2.5,9.6-3.7,14.7-3.7
	c2.3,0,4.5,0.2,6.7,0.6c2.1,0.4,3.8,0.9,5,1.4l-5.5,23c-1.6-0.7-3.5-1.3-5.4-1.7c-2-0.5-3.9-0.7-5.8-0.7c-3.7,0-7.2,0.7-10.6,2.2
	c-3.4,1.4-6.3,3.4-8.8,5.9s-4.5,5.5-6,8.8s-2.2,7-2.2,11V170h-21.6V169.9z"/>
<rect fill="currentcolor" x="216.3" y="62.3" width="21.1" height="107.6"/>
<path fill="currentcolor" d="M226.8,11.9c-13.7,0-18.6,6.9-18.6,13.4s4.9,13.4,18.6,13.4s18.4-6.9,18.4-13.4S240.5,11.9,226.8,11.9 M227.6,35.5
	c-2.8,0-4.7-0.8-5.9-3.3s-3.1-8.9-3.2-11.5c-0.2-2.7,0.8-4.3,3.2-5.1c1.2-0.4,2.8-0.6,4.4-0.6c2.7,0,4.5,0.6,5.8,3.3
	c1.4,2.6,3.3,9,3.3,11.5C235.1,34.8,231.6,35.5,227.6,35.5"/>
<path fill="currentColor" d="M118.6,159.6C112.7,99.5,57.2,30.3,0.5,15.7C54.8,36.1,114.1,114.2,119.1,172c0.3-59.6,54.1-145.3,107.7-171.4
	C170.3,21.1,119.5,97.6,118.6,159.6z"/>
</svg>